<?xml version="1.0" standalone="no"?>
<!DOCTYPE svg PUBLIC "-//W3C//DTD SVG 20010904//EN"
 "http://www.w3.org/TR/2001/REC-SVG-20010904/DTD/svg10.dtd">
<svg version="1.0" xmlns="http://www.w3.org/2000/svg"
 width="320.000000pt" height="38.000000pt" viewBox="0 0 320.000000 38.000000"
 preserveAspectRatio="xMidYMid meet">

<g transform="translate(0.000000,38.000000) scale(0.100000,-0.100000)"
fill="#000000" stroke="none">
<path d="M93 354 c-41 -21 -58 -46 -72 -114 -12 -56 -8 -124 11 -173 11 -30
53 -57 88 -57 29 0 60 35 60 69 0 26 4 30 41 36 23 4 55 19 73 35 27 25 31 35
31 78 0 59 -24 98 -76 124 -42 22 -114 23 -156 2z m67 -61 c0 -5 -7 -17 -15
-27 -18 -24 -19 -60 -2 -74 6 -6 25 -14 40 -17 l28 -7 -29 -18 c-16 -10 -32
-30 -36 -44 -10 -42 -24 -30 -29 27 -3 28 -9 68 -12 89 -6 29 -3 40 14 57 21
21 41 28 41 14z m112 -10 c31 -28 19 -103 -17 -103 -6 0 -9 15 -7 39 2 21 -1
48 -7 60 -15 26 4 29 31 4z m-72 -49 c0 -19 -28 -30 -42 -16 -8 8 -8 15 1 26
14 17 41 10 41 -10z"/>
<path d="M843 350 c-51 -30 -66 -63 -71 -150 -5 -90 8 -141 45 -170 50 -39
117 -12 115 47 -1 29 2 31 54 42 71 16 94 45 94 116 0 61 -24 99 -76 121 -48
20 -123 18 -161 -6z m173 -61 c29 -27 32 -78 6 -102 -10 -10 -39 -24 -64 -33
-34 -11 -49 -23 -58 -45 -28 -66 -60 -19 -60 87 0 60 3 68 30 96 28 27 36 30
76 25 28 -3 55 -13 70 -28z"/>
<path d="M900 270 c-24 -24 -26 -53 -4 -74 34 -35 97 -10 97 39 0 51 -56 72
-93 35z m50 -41 c0 -23 -28 -26 -37 -3 -6 16 15 37 29 28 4 -3 8 -14 8 -25z"/>
<path d="M1237 356 c-74 -27 -107 -80 -107 -174 0 -65 21 -108 73 -146 38 -28
160 -35 205 -12 78 40 36 151 -48 129 -20 -5 -60 20 -60 38 0 21 35 41 62 35
63 -12 105 35 79 90 -22 49 -123 68 -204 40z"/>
<path d="M1920 357 c-39 -20 -54 -62 -54 -157 -1 -104 18 -144 84 -178 117
-60 268 42 189 127 -21 22 -48 25 -98 10 -11 -3 -14 7 -12 47 5 119 -42 185
-109 151z"/>
<path d="M2679 361 c-79 -24 -109 -76 -108 -186 0 -84 15 -132 49 -157 35 -25
87 -9 96 30 3 15 7 31 8 36 1 5 12 -6 24 -26 40 -64 99 -72 127 -18 16 31 8
69 -21 102 -12 12 -13 21 -5 37 6 11 11 40 11 65 0 59 -33 99 -94 115 -50 12
-51 12 -87 2z m60 -157 c-9 -11 -15 -12 -25 -3 -11 9 -12 15 -3 25 9 11 15 12
25 3 11 -9 12 -15 3 -25z"/>
<path d="M462 343 c-65 -32 -98 -119 -79 -211 22 -111 163 -161 264 -94 38 24
63 84 63 149 0 110 -59 173 -159 173 -31 0 -71 -8 -89 -17z m162 -54 c38 -18
62 -88 47 -139 -22 -73 -85 -99 -148 -60 -87 53 -81 155 12 196 38 17 57 17
89 3z"/>
<path d="M519 229 c-28 -28 -22 -76 14 -102 l27 -21 28 21 c51 37 31 123 -28
123 -11 0 -29 -9 -41 -21z m49 -46 c5 -17 -26 -29 -40 -15 -6 6 -7 15 -3 22 9
14 37 9 43 -7z"/>
<path d="M1562 340 c-111 -68 -104 -257 11 -317 40 -20 124 -20 164 0 54 28
77 72 81 152 4 83 -15 127 -67 162 -45 31 -141 32 -189 3z m116 -157 c5 -18
-28 -29 -38 -12 -5 7 -6 17 -3 22 7 12 35 5 41 -10z"/>
<path d="M2274 346 c-114 -50 -118 -263 -6 -320 104 -52 216 -8 247 97 27 90
0 176 -67 217 -39 24 -126 26 -174 6z m101 -166 c0 -8 -8 -16 -17 -18 -13 -2
-18 3 -18 18 0 15 5 20 18 18 9 -2 17 -10 17 -18z"/>
<path d="M2965 337 c-31 -26 -44 -92 -25 -126 6 -12 26 -31 43 -41 22 -14 27
-20 14 -20 -10 0 -31 -7 -47 -15 -24 -13 -30 -22 -30 -50 0 -52 36 -75 119
-75 80 0 125 23 147 76 24 57 0 103 -69 134 l-39 17 35 7 c44 8 71 38 63 69
-8 32 -45 47 -121 47 -52 0 -69 -4 -90 -23z"/>
</g>
</svg>
