<?xml version="1.0" standalone="no"?>
<!DOCTYPE svg PUBLIC "-//W3C//DTD SVG 20010904//EN"
 "http://www.w3.org/TR/2001/REC-SVG-20010904/DTD/svg10.dtd">
<svg version="1.0" xmlns="http://www.w3.org/2000/svg"
 width="500.000000pt" height="259.000000pt" viewBox="0 0 500.000000 259.000000"
 preserveAspectRatio="xMidYMid meet">

<g transform="translate(0.000000,259.000000) scale(0.100000,-0.100000)"
fill="#000000" stroke="none">
<path d="M1021 2013 c-26 -9 -64 -36 -90 -62 -26 -25 -239 -314 -475 -641
-236 -327 -434 -601 -440 -609 -9 -11 -8 -13 4 -9 32 10 203 229 530 678 234
321 397 527 444 558 85 57 174 3 196 -120 28 -153 -71 -358 -205 -424 -50 -24
-63 -26 -143 -22 -67 3 -98 9 -128 26 l-39 22 37 -33 c48 -43 121 -67 227 -74
46 -3 77 -9 70 -14 -8 -4 -77 -26 -154 -49 -245 -74 -368 -145 -443 -257 -35
-54 -37 -60 -36 -137 1 -138 53 -234 152 -283 53 -26 66 -28 177 -28 136 1
199 16 307 72 90 47 184 146 233 247 35 69 38 83 38 159 -1 95 -33 204 -78
263 -19 24 -22 35 -13 39 26 8 258 52 258 48 0 -2 -20 -28 -44 -57 -59 -73
-86 -148 -86 -239 0 -77 22 -142 62 -184 51 -55 202 -69 283 -27 86 45 142
163 132 281 -3 47 -11 72 -31 97 -14 19 -26 37 -26 40 0 2 15 7 33 11 17 4 56
20 86 37 29 16 55 28 56 26 2 -2 -19 -99 -47 -216 -27 -117 -47 -219 -44 -227
3 -8 14 -15 24 -15 51 0 105 82 156 235 34 104 63 154 106 183 42 28 77 25
102 -9 19 -25 19 -26 -7 -129 -40 -158 -45 -193 -34 -234 11 -38 49 -66 92
-66 84 0 249 196 452 535 148 249 305 464 380 520 91 70 191 1 202 -139 10
-116 -41 -256 -121 -338 -65 -65 -105 -82 -206 -86 -74 -3 -91 0 -132 21 -53
27 -61 23 -24 -12 39 -37 123 -62 224 -68 51 -3 91 -7 89 -9 -1 -2 -77 -26
-167 -55 -91 -28 -197 -67 -237 -86 -93 -45 -181 -125 -221 -201 -27 -51 -32
-70 -32 -129 0 -131 47 -210 155 -264 133 -65 317 -61 475 12 127 58 250 216
281 359 24 114 -9 273 -73 345 l-29 34 23 6 c105 25 258 51 258 44 0 -5 -4 -9
-8 -9 -20 0 -93 -117 -112 -177 -24 -79 -25 -122 -4 -193 36 -121 158 -178
299 -139 63 17 129 92 154 174 12 37 21 79 21 94 0 43 -20 104 -46 137 l-23
32 47 11 c26 7 64 23 85 37 22 14 41 23 44 20 3 -3 -15 -95 -41 -203 -25 -109
-46 -208 -46 -220 0 -51 57 -40 98 20 16 23 48 93 71 156 51 139 61 158 98
193 40 39 85 46 112 19 27 -27 27 -35 -9 -184 -17 -69 -30 -141 -30 -160 0
-73 70 -114 145 -83 35 15 148 123 183 174 32 49 -1 31 -79 -42 -44 -42 -87
-76 -94 -76 -19 0 -35 32 -35 69 0 16 12 67 27 113 34 106 36 190 5 240 -25
40 -39 48 -87 48 -53 0 -82 -16 -150 -81 l-63 -60 5 65 c4 50 2 71 -10 90 -31
47 -52 43 -115 -23 -87 -91 -140 -98 -249 -34 -44 26 -56 28 -148 27 -77 0
-122 -6 -195 -27 -91 -26 -210 -36 -210 -19 0 5 22 23 50 41 108 70 192 208
212 348 14 104 2 150 -58 208 -53 52 -115 75 -201 75 -75 0 -120 -20 -176 -78
-59 -61 -206 -276 -401 -587 -254 -405 -285 -445 -320 -409 -23 23 -20 97 9
187 53 165 17 277 -88 277 -51 0 -71 -11 -144 -83 -34 -34 -65 -59 -67 -56 -3
3 0 24 6 47 14 57 -2 114 -37 130 -32 15 -45 9 -72 -33 -51 -78 -148 -110
-221 -72 -18 10 -46 24 -64 34 -59 31 -160 29 -300 -6 -117 -29 -239 -41 -237
-23 0 4 27 24 60 46 117 75 196 212 206 356 7 98 -8 151 -58 205 -66 71 -176
94 -278 58z m215 -32 c67 -41 118 -143 79 -158 -20 -7 -46 19 -77 75 -9 17
-35 44 -57 59 -22 15 -40 31 -41 36 0 14 66 6 96 -12z m2110 -17 c51 -33 84
-81 84 -123 0 -53 -37 -38 -77 31 -19 32 -48 66 -68 78 -19 12 -35 26 -35 31
0 18 57 8 96 -17z m-1354 -541 c10 -9 18 -25 18 -35 0 -19 -1 -19 -30 -1 -16
9 -30 25 -30 35 0 23 18 23 42 1z m2100 5 c19 -16 30 -46 19 -52 -12 -8 -65
40 -57 52 9 15 18 15 38 0z m-1829 -49 c31 -14 50 -48 45 -83 -5 -40 -21 -36
-36 9 -7 22 -19 47 -27 56 -27 29 -20 35 18 18z m2120 -9 c32 -26 45 -76 24
-97 -13 -13 -17 -9 -32 36 -9 28 -21 53 -26 56 -11 8 -12 25 0 25 4 0 20 -9
34 -20z m-2765 -12 c21 -21 14 -48 -11 -48 -28 0 -47 17 -47 42 0 21 39 25 58
6z m2106 -7 c20 -22 14 -41 -14 -41 -17 0 -50 34 -50 52 0 16 47 7 64 -11z
m-2541 -88 c51 -55 84 -157 53 -169 -29 -11 -53 14 -61 63 -3 26 -17 67 -30
91 -21 38 -22 42 -6 42 9 0 29 -12 44 -27z m500 4 c4 -7 6 -40 3 -75 -9 -109
-60 -193 -142 -232 -56 -28 -101 -21 -143 21 -57 57 -51 146 16 220 45 49 63
60 133 76 59 13 120 8 133 -10z m1601 -10 c47 -62 71 -146 46 -162 -27 -17
-49 7 -60 63 -7 31 -20 72 -31 90 -24 41 -23 42 0 42 11 0 31 -15 45 -33z
m500 16 c16 -10 1 -156 -22 -199 -45 -89 -149 -150 -210 -125 -51 21 -75 55
-80 114 -7 84 36 150 126 196 50 26 153 34 186 14z m-2711 -18 c59 -58 63
-233 10 -347 -34 -73 -97 -148 -155 -184 -113 -72 -294 -96 -379 -51 -68 36
-103 93 -107 177 -10 165 78 237 438 362 91 31 168 57 172 57 4 1 13 -6 21
-14z m2109 -2 c24 -30 39 -74 45 -137 15 -165 -104 -373 -254 -444 -50 -23
-70 -27 -150 -27 -81 1 -98 4 -149 31 -72 36 -118 94 -135 168 -11 52 -11 58
16 111 50 103 158 167 437 260 90 30 166 54 169 55 3 0 12 -8 21 -17z m-1757
-314 c4 -5 18 -14 32 -20 30 -11 21 -29 -16 -29 -33 0 -76 42 -67 65 4 12 10
14 25 5 11 -5 23 -15 26 -21z m857 1 c15 -27 16 -32 3 -37 -29 -11 -60 39 -38
60 11 12 18 8 35 -23z m1240 5 c16 -14 36 -25 45 -25 25 0 8 -25 -20 -28 -32
-4 -80 38 -71 62 8 21 11 20 46 -9z m867 -5 c18 -25 19 -31 7 -36 -33 -13 -73
35 -49 59 11 12 19 8 42 -23z m-3870 -277 c41 -26 45 -43 12 -43 -24 0 -71 37
-71 56 0 20 13 18 59 -13z m2094 7 c14 -11 30 -20 37 -20 16 0 6 -24 -11 -28
-20 -4 -69 35 -69 54 0 19 13 18 43 -6z"/>
<path d="M1396 145 c-23 -23 -20 -40 10 -69 31 -28 27 -62 -6 -51 -11 3 -20 2
-20 -3 0 -14 35 -21 54 -10 25 14 20 56 -11 82 -29 25 -24 51 9 43 12 -4 18
-1 15 6 -6 19 -33 20 -51 2z"/>
<path d="M2072 148 c-20 -20 -14 -56 13 -74 42 -27 33 -49 -20 -45 -19 2 -19
1 -2 -13 25 -19 56 -9 64 22 5 20 0 30 -22 48 -29 23 -29 58 -1 52 8 -2 16 2
18 7 5 15 -35 18 -50 3z"/>
<path d="M2427 142 c-30 -33 -19 -121 18 -136 18 -7 45 3 45 16 0 6 -7 8 -15
4 -22 -8 -45 21 -45 58 0 38 19 59 45 50 13 -5 16 -3 13 7 -7 21 -42 22 -61 1z"/>
<path d="M1186 84 c-17 -65 -14 -96 5 -61 13 22 38 22 55 0 21 -30 23 -11 6
60 -22 92 -43 92 -66 1z m46 6 c4 -25 1 -30 -15 -30 -13 0 -17 5 -13 16 3 9 6
22 6 30 0 27 18 14 22 -16z"/>
<path d="M1500 143 c3 -39 28 -127 38 -131 13 -4 17 5 27 62 8 46 13 43 23
-15 11 -67 33 -57 49 20 12 60 11 83 -3 68 -4 -3 -9 -26 -11 -52 -7 -59 -19
-57 -27 5 -9 67 -30 66 -43 -2 -10 -55 -17 -51 -28 15 -3 20 -10 37 -15 37 -6
0 -10 -3 -10 -7z"/>
<path d="M1700 80 l0 -70 35 0 c19 0 35 5 35 10 0 6 -11 10 -25 10 -32 0 -35
37 -3 49 l22 8 -23 6 c-30 7 -24 39 9 48 21 6 20 7 -12 8 l-38 1 0 -70z"/>
<path d="M1830 80 l0 -70 29 0 c34 0 49 15 57 58 9 44 -17 82 -56 82 l-30 0 0
-70z m60 28 c11 -21 12 -31 2 -52 -6 -14 -18 -26 -27 -26 -12 0 -15 13 -15 56
0 61 13 68 40 22z"/>
<path d="M1980 80 c0 -40 4 -70 10 -70 6 0 10 30 10 70 0 40 -4 70 -10 70 -6
0 -10 -30 -10 -70z"/>
<path d="M2190 80 c0 -40 4 -70 10 -70 6 0 10 16 10 36 0 31 3 35 23 32 17 -2
23 -11 25 -35 6 -61 22 -33 22 37 0 68 -15 98 -22 43 -2 -20 -9 -29 -25 -31
-20 -3 -23 1 -23 27 0 17 -4 31 -10 31 -6 0 -10 -30 -10 -70z"/>
<path d="M2548 80 c-8 -38 -11 -70 -6 -70 5 0 11 7 14 15 8 20 41 19 53 -2 19
-35 22 -4 5 61 -12 49 -21 66 -34 66 -13 0 -20 -17 -32 -70z m42 26 c0 -8 3
-21 6 -30 4 -11 0 -16 -13 -16 -16 0 -19 5 -15 30 4 30 22 43 22 16z"/>
<path d="M2680 80 c0 -40 4 -70 10 -70 6 0 10 21 10 46 0 53 11 51 30 -5 22
-66 40 -53 40 29 0 40 -4 70 -10 70 -5 0 -10 -21 -11 -47 l-1 -48 -20 48 c-31
70 -48 62 -48 -23z"/>
<path d="M2838 80 c4 -69 4 -70 32 -70 36 0 55 24 55 70 0 48 -19 70 -59 70
l-31 0 3 -70z m58 35 c19 -29 8 -78 -19 -83 -14 -3 -17 6 -17 52 0 61 10 70
36 31z"/>
<path d="M2985 114 c8 -20 15 -52 15 -70 0 -24 5 -34 15 -34 10 0 15 10 15 34
0 18 7 50 15 70 9 21 11 36 5 36 -5 0 -16 -15 -23 -32 l-13 -33 -12 33 c-6 17
-16 32 -22 32 -6 0 -5 -13 5 -36z"/>
<path d="M3187 112 c-33 -36 -14 -102 28 -102 14 0 25 5 25 11 0 6 -6 9 -14 6
-32 -12 -50 49 -21 73 8 6 19 8 26 4 7 -4 10 -2 7 7 -7 21 -32 22 -51 1z"/>
<path d="M3306 114 c-19 -18 -21 -75 -4 -92 7 -7 22 -12 35 -12 44 0 54 88 13
110 -24 13 -26 13 -44 -6z m45 -28 c15 -32 -5 -73 -27 -55 -8 6 -14 24 -14 39
0 45 24 55 41 16z"/>
<path d="M3430 20 c0 -5 5 -10 10 -10 6 0 10 5 10 10 0 6 -4 10 -10 10 -5 0
-10 -4 -10 -10z"/>
</g>
</svg>
