<?xml version="1.0" standalone="no"?>
<!DOCTYPE svg PUBLIC "-//W3C//DTD SVG 20010904//EN"
 "http://www.w3.org/TR/2001/REC-SVG-20010904/DTD/svg10.dtd">
<svg version="1.0" xmlns="http://www.w3.org/2000/svg"
 width="111.000000pt" height="59.000000pt" viewBox="0 0 111.000000 59.000000"
 preserveAspectRatio="xMidYMid meet">

<g transform="translate(0.000000,59.000000) scale(0.100000,-0.100000)"
fill="#000000" stroke="none">
<path d="M892 574 c-38 -26 -72 -112 -88 -217 -11 -80 -114 -192 -114 -125 0
12 22 67 49 123 70 141 75 196 17 181 -37 -9 -73 -78 -97 -187 -21 -98 -59
-179 -84 -179 -19 0 -19 1 7 82 21 66 20 94 -4 70 -7 -7 -24 -12 -39 -12 -54
0 -119 -83 -119 -153 0 -59 39 -74 87 -33 21 18 31 21 44 13 21 -13 65 13 81
49 14 29 25 31 33 4 10 -32 37 -24 85 25 24 25 47 45 50 45 3 0 10 -10 15 -22
13 -28 40 -25 75 7 18 18 29 22 40 15 8 -6 27 -7 42 -4 l28 5 -21 -50 c-28
-66 -79 -118 -148 -149 -67 -31 -220 -42 -309 -22 -58 12 -242 96 -242 109 0
4 11 13 25 19 39 18 117 94 131 129 8 18 14 47 14 65 0 35 -32 98 -50 98 -6 0
-22 12 -36 27 -23 24 -25 25 -42 10 -10 -10 -34 -17 -54 -17 -47 0 -168 -62
-206 -104 -16 -19 -38 -55 -48 -81 -16 -43 -16 -50 -3 -74 10 -18 24 -27 48
-29 36 -4 81 20 81 43 0 19 -10 19 -34 0 -26 -19 -62 -19 -70 0 -19 50 84 169
171 199 43 15 93 21 93 12 0 -5 -81 -185 -133 -298 -21 -44 -32 -80 -27 -83
14 -9 28 2 46 36 13 27 19 30 45 24 17 -4 76 -28 132 -55 132 -62 185 -74 306
-68 147 8 258 59 306 142 13 23 44 95 70 161 25 66 50 130 55 143 8 17 6 24
-5 29 -19 7 -15 13 -50 -72 -32 -76 -75 -132 -93 -121 -16 10 -15 36 3 79 18
43 19 57 5 57 -6 0 -21 -25 -35 -55 -28 -63 -62 -115 -76 -115 -21 0 -6 55 35
133 53 99 70 150 62 183 -7 28 -22 30 -54 8z m28 -38 c0 -19 -23 -73 -55 -126
l-27 -45 7 40 c12 77 75 186 75 131z m-150 -48 c0 -18 -71 -158 -80 -158 -10
0 6 60 32 123 19 42 48 65 48 35z m-364 -80 c32 -62 -14 -145 -115 -210 -84
-53 -86 -42 -19 100 33 70 65 132 70 138 14 19 48 4 64 -28z m144 -143 c0 -19
-37 -94 -58 -117 -38 -44 -59 11 -27 72 25 48 85 80 85 45z"/>
</g>
</svg>
