<?xml version="1.0" standalone="no"?>
<!DOCTYPE svg PUBLIC "-//W3C//DTD SVG 20010904//EN"
 "http://www.w3.org/TR/2001/REC-SVG-20010904/DTD/svg10.dtd">
<svg version="1.0" xmlns="http://www.w3.org/2000/svg"
 width="268.000000pt" height="88.000000pt" viewBox="0 0 268.000000 88.000000"
 preserveAspectRatio="xMidYMid meet">

<g transform="translate(0.000000,88.000000) scale(0.100000,-0.100000)"
fill="#000000" stroke="none">
<path d="M1136 870 c-134 -24 -274 -136 -342 -274 -39 -79 -39 -81 -39 -195 0
-110 2 -119 32 -182 58 -119 146 -186 271 -209 204 -37 421 110 478 324 18 66
18 206 0 274 -49 183 -218 294 -400 262z m204 -45 c54 -28 84 -58 105 -107 58
-140 -52 -457 -210 -607 -89 -84 -148 -98 -248 -61 -57 22 -109 68 -126 113
-17 44 -13 157 9 241 39 153 153 343 243 405 80 55 141 59 227 16z"/>
<path d="M16 773 c-4 -54 -9 -115 -11 -135 -8 -61 11 -44 34 30 24 78 67 144
110 167 17 8 56 15 91 15 l60 0 0 -410 0 -410 -65 0 c-37 0 -65 -4 -65 -10 0
-6 70 -10 190 -10 120 0 190 4 190 10 0 6 -28 10 -65 10 l-65 0 0 410 0 410
55 0 c105 0 163 -54 209 -197 18 -55 42 -73 32 -25 -3 15 -8 68 -11 117 -4 50
-9 98 -11 108 -5 16 -30 17 -339 17 l-333 0 -6 -97z"/>
<path d="M1600 860 c0 -5 25 -10 55 -10 l55 0 0 -410 0 -410 -55 0 c-30 0 -55
-4 -55 -10 0 -6 65 -10 175 -10 110 0 175 4 175 10 0 6 -27 10 -60 10 l-60 0
0 200 0 200 108 0 c128 0 197 17 248 62 101 88 98 235 -6 319 -60 48 -129 59
-367 59 -135 0 -213 -4 -213 -10z m470 -45 c37 -37 54 -118 44 -213 -12 -117
-56 -150 -201 -151 l-83 -1 0 201 0 201 105 -4 c101 -3 106 -4 135 -33z"/>
<path d="M2340 860 c0 -5 25 -10 55 -10 l55 0 0 -410 0 -410 -55 0 c-30 0 -55
-4 -55 -10 0 -6 63 -10 170 -10 107 0 170 4 170 10 0 6 -25 10 -55 10 l-55 0
0 410 0 410 55 0 c30 0 55 5 55 10 0 6 -63 10 -170 10 -107 0 -170 -4 -170
-10z"/>
</g>
</svg>
